# xmcd
#
# Track frame offsets:
#	150
#	12530
#	23157
#	35112
#	48235
#	64502
#	78235
#	88787
#	107107
#	122560
#	136947
#	146260
#	161037
#	174087
#	187775
#	199877
#	210390
#	222067
#	236875
#	248782
#	260035
#	271977
#	286045
#	298265
#	309387
#
# Disc length: 4297 seconds
# Revision: 0
# Processed by: cddbd v1.5.2PL0 Copyright (c) Steve Scherf et al.
# Submitted via: dBpowerAMP V12.0
#
DISCID=6510c719
DTITLE=Various Artist - CBS Records: Tree International 1958-1988 (2 Of 4)
DYEAR=1989
DGENRE=Country
TTITLE0=Barbara Mandrell - The Midnight Oil
TTITLE1=George Jones - Nothing Ever Hurt Me (Half As Bad)
TTITLE2=Tammy Wynette - Till I Get It Right
TTITLE3=Tanya Tucker - The Man That Turned My Mama On
TTITLE4=Charlie Rich - My Elusive Dreams
TTITLE5=George Jones and Tammy Wynette - Golden Ring
TTITLE6=George Jones - Her Name Is........
TTITLE7=Johnny Cash - One Piece At A Time
TTITLE8=Johnny Duncan - Thinking Of Rendezvous
TTITLE9=Johnny Paycheck - I'm The Only Hell My Mama Ever Raised
TTITLE10=Mary Kay Place - Something To Brag About
TTITLE11=Johnny Cash and Waylon Jennings - There Ain't No Good Chain Gangs
TTITLE12=Tammy Wynette - Womanhood
TTITLE13=Willie Nelson and Leon Russell - Heartbreak Hotel
TTITLE14=Moe Bandy - It's A Cheating Situation
TTITLE15=Tammy Wynette - They Call It Making Love
TTITLE16=Lacy J. Dalton - Hard Times
TTITLE17=George Jones - He Stopped Loving Her Today
TTITLE18=Mickey Gilley - That's All That Matters To Me
TTITLE19=Janie Frickie - Down To My Last Broken Heart
TTITLE20=Ronnie McDowell - Older Women
TTITLE21=Ronnie McDowell - Wandering Eyes
TTITLE22=Ronnie McDowell - Watchin' Girls Go By
TTITLE23=Janie Frickie - Don't Worry 'Bout Me Baby
TTITLE24=Ronnie McDowell - Step Back
EXTD=
EXTT0=
EXTT1=
EXTT2=
EXTT3=
EXTT4=
EXTT5=
EXTT6=
EXTT7=
EXTT8=
EXTT9=
EXTT10=
EXTT11=
EXTT12=
EXTT13=
EXTT14=
EXTT15=
EXTT16=
EXTT17=
EXTT18=
EXTT19=
EXTT20=
EXTT21=
EXTT22=
EXTT23=
EXTT24=
PLAYORDER=
